<svg id="Capa_1" fill="white" enable-background="new 0 0 511.307 511.307" height="512" viewBox="0 0 511.307 511.307" width="512" xmlns="http://www.w3.org/2000/svg"><g><path d="m439.318 257.95c-1.441-3.884-5.759-5.862-9.64-4.424-3.884 1.44-5.865 5.756-4.425 9.64 7.584 20.451 11.43 37.984 11.43 52.112 0 99.82-81.209 181.029-181.029 181.029s-181.03-81.209-181.03-181.029c0-32.137 19.166-79.853 56.966-141.824 2.156-3.536 1.038-8.151-2.498-10.308-3.537-2.158-8.151-1.04-10.309 2.498-39.255 64.357-59.159 114.702-59.159 149.634 0 108.091 87.938 196.029 196.029 196.029s196.029-87.938 196.029-196.029c.001-15.914-4.159-35.201-12.364-57.328z"/><path d="m138.656 148.056c1.267.829 2.691 1.226 4.101 1.226 2.445 0 4.843-1.194 6.282-3.394 31.861-48.675 66.599-93.75 90.129-122.991 4.038-5.019 10.047-7.897 16.486-7.897s12.447 2.878 16.486 7.897c18.088 22.478 45.352 57.523 72.519 96.833 2.355 3.407 7.025 4.261 10.434 1.906s4.261-7.026 1.906-10.434c-27.424-39.681-54.929-75.036-73.173-97.708-6.901-8.576-17.17-13.494-28.172-13.494s-21.271 4.918-28.172 13.494c-23.741 29.503-58.799 74.996-90.994 124.18-2.269 3.465-1.298 8.114 2.168 10.382z"/><path d="m248.154 249.274v34.839c-12.248-15.409-31.134-25.318-52.302-25.318h-52.442c-10.475 0-18.996 8.522-18.996 18.997v40.657c0 36.834 29.967 66.802 66.802 66.802h56.938v70.777c0 4.142 3.357 7.5 7.5 7.5s7.5-3.358 7.5-7.5v-34.892h24.173c26.345 0 47.777-21.433 47.777-47.778v-14.123c0-7.367-5.993-13.36-13.359-13.36h-25.812c-12.681 0-24.216 4.976-32.778 13.066v-52.053h52.018c27.656 0 54.192-10.194 74.718-28.704 3.076-2.774 3.321-7.517.547-10.593-2.773-3.076-7.517-3.319-10.592-.547-17.766 16.021-40.733 24.843-64.673 24.843h-40.616l137.23-129.25v32.636c0 16.513-4.243 32.814-12.271 47.144-2.024 3.613-.736 8.184 2.877 10.208s8.184.736 10.209-2.877c9.279-16.563 14.185-35.4 14.185-54.475v-41.313c0-8.987-7.312-16.299-16.3-16.299h-50.719c-61.545 0-111.614 50.069-111.614 111.613zm-108.74 69.175v-35.125l50.095 45.245c1.435 1.296 3.232 1.934 5.025 1.934 2.047 0 4.087-.834 5.567-2.473 2.776-3.074 2.535-7.816-.538-10.593l-48.319-43.641h44.607c28.563 0 51.802 23.238 51.802 51.802v35.273l-24.369-22.009c-3.074-2.775-7.814-2.536-10.594.539-2.775 3.074-2.534 7.816.539 10.593l22.43 20.258h-44.443c-28.563-.002-51.802-23.24-51.802-51.803zm156.518 42.426h24.172v12.483c0 18.074-14.704 32.778-32.777 32.778h-24.173v-12.483c0-18.074 14.704-32.778 32.778-32.778zm63.835-208.214h40.733l-137.347 129.36v-32.747c.001-53.273 43.341-96.613 96.614-96.613z"/></g></svg>