<svg height="480pt" fill="white" viewBox="0 -1 480 479" width="480pt" xmlns="http://www.w3.org/2000/svg"><path d="m304 152.5c30.929688 0 56-25.070312 56-56s-25.070312-56-56-56-56 25.070312-56 56c.035156 30.914062 25.085938 55.964844 56 56zm0-96c22.089844 0 40 17.910156 40 40s-17.910156 40-40 40-40-17.910156-40-40c.027344-22.082031 17.917969-39.972656 40-40zm0 0"/><path d="m296 168.5h16v24h-16zm0 0"/><path d="m230.460938 158.726562 16.972656-16.972656 11.3125 11.3125-16.972656 16.972656zm0 0"/><path d="m208 88.5h24v16h-24zm0 0"/><path d="m230.460938 34.273438 11.3125-11.3125 16.972656 16.972656-11.3125 11.3125zm0 0"/><path d="m296 .5h16v24h-16zm0 0"/><path d="m349.253906 39.933594 16.972656-16.972656 11.3125 11.3125-16.972656 16.972656zm0 0"/><path d="m376 88.5h24v16h-24zm0 0"/><path d="m349.253906 153.066406 11.3125-11.3125 16.972656 16.972656-11.3125 11.3125zm0 0"/><path d="m317.65625 329.46875 148.6875 148.6875 11.3125-11.3125-148.6875-148.6875c-9.375-9.359375-24.5625-9.359375-33.9375 0l-36.273438 36.273438-64.457031-73.246094c-4.621093-5.25-11.300781-8.226563-18.292969-8.144532-6.996093.082032-13.605468 3.210938-18.101562 8.566407l-156.03125 185.75 12.25 10.289062 156.03125-185.75c1.492188-1.796875 3.699219-2.84375 6.035156-2.855469 2.316406.039063 4.519532 1.019532 6.097656 2.714844l163.707032 186.03125 12.007812-10.570312-88.65625-100.75 36.996094-36.996094c3.167969-3.015625 8.144531-3.015625 11.3125 0zm0 0"/><path d="m376.804688 208.5h-24.804688c-22.089844 0-40 17.910156-40 40s17.910156 40 40 40h128v-16h-128c-13.253906 0-24-10.746094-24-24s10.746094-24 24-24h40v-8c.015625-13.25 10.75-23.984375 24-24h64v-16h-64c-19 .023438-35.371094 13.390625-39.195312 32zm0 0"/><path d="m200 168.5c-.027344-22.082031-17.917969-39.972656-40-40h-24.804688c-3.824218-18.609375-20.195312-31.976562-39.195312-32h-96v16h96c13.25.015625 23.984375 10.75 24 24v8h40c13.253906 0 24 10.746094 24 24s-10.746094 24-24 24h-160v16h160c22.082031-.027344 39.972656-17.917969 40-40zm0 0"/></svg>