<svg id="Layer_5" fill="white" enable-background="new 0 0 64 64" height="512" viewBox="0 0 64 64" width="512" xmlns="http://www.w3.org/2000/svg"><path d="m61.986 33.279c-.008-.426-.08-.867-.243-1.32-.894-2.49-4.053-5.187-8.244-7.038-4.849-2.142-9.432-2.483-11.815-1.076-.093-2.226-.623-4.434-1.589-6.518-1.954-4.216-5.445-7.417-9.833-9.014-11.145-4.061-23.536 1.645-27.624 12.713-2.443 6.617-2.155 13.787.811 20.189 2.989 6.45 8.333 11.349 15.046 13.792 3.718 1.354 7.571 1.995 11.391 1.995 13.112 0 25.823-7.56 31.281-19.817.522-1.172.791-2.407.822-3.673.002-.04.006-.08.006-.121 0-.037.006-.074.006-.111h-.015zm-43.749-21.372c.103-.644.216-1.401.03-2.351 3.629-.875 7.547-.735 11.311.635 3.883 1.414 6.974 4.247 8.702 7.976 1.714 3.699 1.88 7.84.468 11.663-2.304 6.239-9.294 9.452-15.581 7.165-2.395-.872-4.3-2.618-5.365-4.918-1.057-2.28-1.158-4.832-.288-7.188 1.405-3.809 5.673-5.767 9.51-4.372 1.442.525 2.59 1.577 3.231 2.961.635 1.371.696 2.907.173 4.324-.831 2.252-3.357 3.411-5.626 2.584-.832-.303-1.494-.909-1.863-1.707-.367-.791-.402-1.675-.101-2.492l-1.877-.692c-.486 1.319-.429 2.749.162 4.025.596 1.285 1.659 2.26 2.995 2.746 3.304 1.203 6.975-.489 8.187-3.77.709-1.92.625-4-.235-5.858-.867-1.871-2.416-3.291-4.362-3.999-1.783-.649-3.636-.721-5.36-.322-.664-1.025-1.428-1.513-2.067-1.914-.716-.448-1.28-.802-1.781-1.902-.5-1.102-.396-1.76-.263-2.594zm-14.95 21.944c-.629-4.038-.228-8.191 1.228-12.132 2.077-5.628 6.524-9.724 11.813-11.59.067.512.015.961-.065 1.464-.148.929-.333 2.085.417 3.734.749 1.649 1.742 2.271 2.539 2.771.438.274.818.514 1.163.91-2.123 1.019-3.869 2.82-4.744 5.188-.645 1.745-.843 3.579-.613 5.373-1.462.656-2.161 1.455-2.786 2.172-.636.728-1.185 1.356-2.635 1.878-1.448.521-2.271.388-3.229.232-.843-.137-1.782-.283-3.088 0zm15.891 19.277c-6.209-2.261-11.15-6.79-13.914-12.755-.687-1.482-1.218-3.008-1.593-4.56.96-.214 1.635-.111 2.384.012 1.072.174 2.289.372 4.227-.326 1.938-.697 2.748-1.625 3.463-2.443.482-.552.917-1.047 1.732-1.482.145.454.309.904.512 1.343 1.29 2.786 3.598 4.901 6.496 5.956 2.572.936 5.242 1.065 7.745.543.114 1.204-.044 2.032-.211 2.895-.242 1.252-.517 2.671.028 5.123.546 2.453 1.395 3.622 2.144 4.654.54.743 1.055 1.46 1.472 2.693-4.8.56-9.758.067-14.485-1.653zm16.488 1.36c-.531-1.737-1.228-2.71-1.856-3.576-.698-.959-1.356-1.865-1.81-3.912-.455-2.048-.243-3.146-.019-4.311.195-1.009.404-2.137.195-3.817 3.781-1.369 6.958-4.313 8.45-8.349.137-.37.242-.745.352-1.12 1.37 2.074 4.088 4.159 7.523 5.677 2.913 1.286 5.731 1.925 8.035 1.925 1.004 0 1.904-.128 2.678-.37-4.375 9.571-13.474 16.044-23.548 17.853zm24.33-21.135c-.001.191-.037.365-.113.517-.785 1.563-5.475 1.632-10.573-.62-4.152-1.834-6.594-4.277-7.17-5.885-.178-.496-.186-.911-.022-1.235.364-.726 1.567-1.129 3.262-1.129 1.96 0 4.577.541 7.312 1.749 4.152 1.834 6.593 4.277 7.17 5.885.088.245.133.47.138.674-.002.015-.004.029-.004.044z"/></svg>