<svg id="Layer_1_1_" fill="white" enable-background="new 0 0 64 64" height="512" viewBox="0 0 64 64" width="512" xmlns="http://www.w3.org/2000/svg"><path d="m58.155 29.537-1.795-1.337c-.059-.066-.125-.125-.199-.175-.298-.199-7.375-4.803-15.065-.017-2.242 1.395-4.031 3.41-5.445 5.563.975-3.025 2.259-6.198 3.926-8.918 6.715-1.832 12.219-6.486 15.141-12.822l.19-.413c.167-.362.103-.789-.163-1.086-.267-.297-.684-.408-1.062-.282-.255.085-6.339 2.179-13.437 10.29-3.577 4.088-5.871 10.093-7.278 15.142l-.038-11.807.109-.033-.111-.372-.07-21.274c-.002-.473-.335-.88-.799-.976-.464-.093-.931.147-1.118.582l-3.75 8.643c-.094.216-.108.458-.041.685l3.779 12.637.027 8.227c-1.323-6.719-3.266-13.897-5.785-16.068-5.02-4.327-9.307-6.43-13.108-6.43-3.94 0-9.23 3.308-9.453 3.449-.359.227-.536.656-.441 1.07.096.414.441.723.864.77l3.819.424c4.084.454 8.065 1.516 11.835 3.156l.942.41 7.127 4.509c1.077 3.418 2.007 7.769 2.736 11.857-1.469-2.64-3.485-5.234-6.213-6.931-7.69-4.784-14.768-.181-15.065.017-.074.049-.141.108-.199.175l-1.795 1.337c-2.676 1.994-4.134 5.171-3.901 8.499l.631 9.051c.034.488.416.88.903.926.032.003.063.004.096.004.293 0 .556-.137.742-.349l.009.008 3.357-3.827c3.159-3.602 5.508-7.945 6.791-12.56l.956-3.438c1.934-.013 4.144.438 6.419 1.854 5.542 3.448 7.914 11.453 8.601 14.294h-9.824c-.553 0-1 .448-1 1 0 6.342 1.47 12.365 4.033 16.525.183.294.505.474.852.474h14.23c.347 0 .669-.18.852-.475 2.563-4.16 4.033-10.183 4.033-16.525 0-.552-.447-1-1-1h-9.721c.821-3.013 3.422-10.901 8.873-14.294 2.275-1.416 4.485-1.867 6.42-1.854l.955 3.438c1.283 4.615 3.632 8.958 6.791 12.56l3.357 3.828.009-.008c.186.212.449.349.742.349.032 0 .063-.001.096-.004.487-.046.869-.438.903-.926l.632-9.052c.232-3.329-1.227-6.506-3.902-8.5zm-16.402-7.878c3.975-4.543 7.632-7.105 9.964-8.443-2.382 3.902-5.924 6.919-10.143 8.65.059-.07.118-.139.179-.207zm-12.583-10.953 1.703-3.925.032 9.728zm-8.537 6.136c-.043-.027-.088-.051-.136-.072l-1.013-.441c-3.953-1.72-8.129-2.834-12.412-3.31l-.646-.072c1.701-.812 3.888-1.654 5.636-1.654 3.302 0 7.162 1.945 11.802 5.945.611.527 1.199 1.491 1.758 2.76zm-13.583 14.587-2.525 9.511-.212-3.043c-.174-2.491.843-4.875 2.737-6.468zm5.869-.675c-1.203 4.328-3.404 8.4-6.367 11.777l-.544.621 3.623-13.65c.614-.352 2.081-1.088 4.039-1.448zm25.628 29.246h-13.094c-2.071-3.61-3.304-8.632-3.44-14h19.975c-.137 5.368-1.37 10.39-3.441 14zm21.515-22.103-.212 3.045-2.525-9.514c1.893 1.594 2.91 3.978 2.737 6.469zm-8.607-7.143-.75-2.7c1.959.36 3.426 1.096 4.039 1.447l3.623 13.65-.544-.62c-2.964-3.377-5.165-7.449-6.368-11.777z"/><path d="m39.852 49.24-1.971-.346c-.009.053-.953 5.36-2.448 7.903l1.725 1.014c1.678-2.856 2.653-8.339 2.694-8.571z"/></svg>