<svg id="Capa_1" fill="white" enable-background="new 0 0 502.175 502.175" height="512" viewBox="0 0 502.175 502.175" width="512" xmlns="http://www.w3.org/2000/svg"><g><path d="m319.58 416.905c-25.52-.072-50.052-9.872-68.597-27.404-18.387 17.643-42.9 27.467-68.382 27.404-55.312-.063-100.135-44.886-100.198-100.198 0-28.3 12.085-55.252 33.215-74.078-27.22-48.048-10.336-109.066 37.712-136.286.578-.328 1.16-.649 1.745-.966-.234-1.717-.361-3.447-.38-5.18 0-55.337 44.86-100.197 100.198-100.197s100.198 44.86 100.198 100.198c-.022 3.945-.341 7.883-.954 11.78 41.052 29.026 53.888 84.179 29.872 128.349 22.686 18.891 35.792 46.895 35.762 76.417-.083 55.294-44.896 100.094-100.191 100.161zm-68.597-44.815c2.015.001 3.936.85 5.294 2.339 31.763 35.068 85.941 37.747 121.009 5.984s37.747-85.941 5.984-121.009c-3.885-4.289-8.195-8.174-12.863-11.594-2.992-2.23-3.775-6.382-1.801-9.548 24.954-39.537 13.256-91.807-26.17-116.935-2.457-1.585-3.705-4.503-3.157-7.375.939-4.531 1.443-9.14 1.507-13.767.006-47.414-38.426-85.855-85.84-85.86-47.414-.006-85.855 38.426-85.861 85.84v.02c.038 1.616.189 3.226.452 4.821.172 1.32.352 2.618.452 3.917.234 2.966-1.387 5.769-4.075 7.045-42.74 20.288-60.941 71.382-40.653 114.122 1.662 3.501 3.56 6.886 5.68 10.13 2.019 3.104 1.345 7.234-1.557 9.534-37.097 29.253-43.456 83.041-14.203 120.138s83.041 43.456 120.138 14.203c3.715-2.93 7.181-6.162 10.361-9.665 1.358-1.488 3.279-2.337 5.294-2.339z"/><path d="m251.091 502.175c-3.962 0-7.174-3.212-7.174-7.174v-317.805c0-3.962 3.212-7.174 7.174-7.174s7.174 3.212 7.174 7.174v317.805c0 3.962-3.212 7.174-7.174 7.174z"/><path d="m251.091 264.775c-3.962.162-7.306-2.918-7.468-6.88s2.918-7.306 6.88-7.468c40.726-3.386 50.555-50.935 50.648-51.408.767-3.889 4.541-6.42 8.429-5.653 3.889.767 6.42 4.541 5.653 8.429-3.996 20.273-22.418 59.544-63.532 62.93-.216.043-.424.05-.61.05z"/><path d="m245.416 311.463c-17.116.663-33.809-5.419-46.487-16.938-23.609-22.239-23.882-57.872-23.882-59.379 0-3.962 3.212-7.174 7.174-7.174 3.962 0 7.174 3.212 7.174 7.174 0 .308.337 31.113 19.427 49.005 11.498 10.005 26.701 14.665 41.831 12.82 3.962-.244 7.371 2.771 7.615 6.733s-2.771 7.371-6.733 7.615c-2.075.096-4.115.144-6.119.144z"/><path d="m257.633 354.04c-2.26 0-4.563-.057-6.908-.179-3.957-.197-7.005-3.565-6.808-7.522 0-.001 0-.002 0-.004.265-3.928 3.598-6.938 7.533-6.801 23.15 1.162 41.286-4.168 53.668-15.862 11.004-11.313 17.47-26.273 18.172-42.039 0-3.962 3.212-7.174 7.174-7.174 3.962 0 7.174 3.212 7.174 7.174-.653 19.652-8.698 38.334-22.526 52.312-15.782 13.98-36.425 21.197-57.479 20.095z"/><path d="m281.135 502.175h-60.082c-3.962 0-7.174-3.212-7.174-7.174s3.212-7.174 7.174-7.174h60.082c3.962 0 7.174 3.212 7.174 7.174s-3.212 7.174-7.174 7.174z"/></g></svg>